<svg xmlns="http://www.w3.org/2000/svg" xmlns:xlink="http://www.w3.org/1999/xlink" width="500" zoomAndPan="magnify" viewBox="0 0 375 374.999991" height="500" preserveAspectRatio="xMidYMid meet" version="1.0"><defs><clipPath id="92b8fb18bb"><path d="M 128.808594 198 L 188 198 L 188 230.890625 L 128.808594 230.890625 Z M 128.808594 198 " clip-rule="nonzero"/></clipPath><clipPath id="3a9e2226e9"><path d="M 187 198 L 246.558594 198 L 246.558594 230.890625 L 187 230.890625 Z M 187 198 " clip-rule="nonzero"/></clipPath><clipPath id="f1b1f80b66"><path d="M 158 198 L 218 198 L 218 230.890625 L 158 230.890625 Z M 158 198 " clip-rule="nonzero"/></clipPath><clipPath id="e266a5a2cc"><path d="M 158 198 L 183 198 L 183 230.890625 L 158 230.890625 Z M 158 198 " clip-rule="nonzero"/></clipPath><clipPath id="2b0bc1065f"><path d="M 192 199 L 218 199 L 218 230.890625 L 192 230.890625 Z M 192 199 " clip-rule="nonzero"/></clipPath></defs><rect x="-37.5" width="450" fill="#ffffff" y="-37.499999" height="449.999989" fill-opacity="1"/><rect x="-37.5" width="450" fill="#ffffff" y="-37.499999" height="449.999989" fill-opacity="1"/><path fill="#9bdff8" d="M 30.707031 0.0859375 L 108.289062 0.0859375 L 108.289062 187.414062 L 30.707031 187.414062 L 30.707031 0.0859375 " fill-opacity="1" fill-rule="nonzero"/><path fill="#ffffff" d="M 40.984375 167.734375 C 40.984375 164.851562 43.332031 162.5 46.21875 162.5 C 49.125 162.5 51.453125 164.851562 51.453125 167.734375 C 51.453125 170.621094 49.125 172.96875 46.21875 172.96875 C 43.332031 172.96875 40.984375 170.621094 40.984375 167.734375 " fill-opacity="1" fill-rule="nonzero"/><path fill="#f8bfa7" d="M 102.671875 101.109375 L 23.097656 101.109375 C 17.457031 101.109375 12.882812 105.683594 12.882812 111.304688 C 12.882812 116.964844 17.457031 121.539062 23.097656 121.539062 L 102.671875 121.539062 L 102.671875 101.109375 " fill-opacity="1" fill-rule="nonzero"/><path fill="#f8bfa7" d="M 102.671875 80.683594 L 10.300781 80.683594 C 4.65625 80.683594 0.0859375 85.257812 0.0859375 90.898438 C 0.0859375 96.539062 4.65625 101.109375 10.300781 101.109375 L 102.671875 101.109375 L 102.671875 80.683594 " fill-opacity="1" fill-rule="nonzero"/><path fill="#f8bfa7" d="M 102.671875 60.257812 L 28.910156 60.257812 C 23.269531 60.257812 18.695312 64.828125 18.695312 70.46875 C 18.695312 76.109375 23.269531 80.683594 28.910156 80.683594 L 102.671875 80.683594 L 102.671875 60.257812 " fill-opacity="1" fill-rule="nonzero"/><path fill="#f8bfa7" d="M 102.671875 39.828125 L 66.152344 39.828125 C 60.511719 39.828125 55.941406 44.402344 55.941406 50.042969 C 55.941406 55.683594 60.511719 60.257812 66.152344 60.257812 L 102.671875 60.257812 L 102.671875 39.828125 " fill-opacity="1" fill-rule="nonzero"/><path fill="#f8bfa7" d="M 102.671875 120.875 L 81.28125 120.875 C 75.640625 120.875 71.046875 125.664062 71.046875 131.582031 L 71.046875 138.398438 C 71.046875 138.398438 71.238281 142.285156 74.550781 142.285156 L 140.085938 142.285156 C 140.085938 142.285156 152.117188 140.855469 160.257812 125.425781 L 167.628906 114.722656 L 187.800781 114.722656 L 187.800781 52.285156 L 165.683594 52.285156 L 156.390625 43.890625 C 156.390625 43.890625 153.675781 40.640625 147.863281 39.828125 L 102.671875 39.828125 " fill-opacity="1" fill-rule="nonzero"/><path stroke-linecap="round" transform="matrix(0.213675, 0, 0, -0.213675, -266.666668, 641.880318)" fill="none" stroke-linejoin="round" d="M 1612.107771 2435.197236 L 1803.804971 2435.197236 " stroke="#f0ac92" stroke-width="20" stroke-opacity="1" stroke-miterlimit="10"/><path stroke-linecap="round" transform="matrix(0.213675, 0, 0, -0.213675, -266.666668, 641.880318)" fill="none" stroke-linejoin="round" d="M 1348.894316 2530.80818 L 1647.701367 2530.80818 " stroke="#f0ac92" stroke-width="20" stroke-opacity="1" stroke-miterlimit="10"/><path stroke-linecap="round" transform="matrix(0.213675, 0, 0, -0.213675, -266.666668, 641.880318)" fill="none" stroke-linejoin="round" d="M 1369.003692 2626.400842 L 1674.391994 2626.400842 " stroke="#f0ac92" stroke-width="20" stroke-opacity="1" stroke-miterlimit="10"/><path stroke-linecap="round" transform="matrix(0.213675, 0, 0, -0.213675, -266.666668, 641.880318)" fill="none" stroke-linejoin="round" d="M 1548.39761 2721.993505 L 1711.192152 2721.993505 " stroke="#f0ac92" stroke-width="20" stroke-opacity="1" stroke-miterlimit="10"/><path fill="#2f497b" d="M 375.128906 43.953125 L 375.128906 121.539062 L 187.800781 121.539062 L 187.800781 43.953125 L 375.128906 43.953125 " fill-opacity="1" fill-rule="nonzero"/><path fill="#ffffff" d="M 207.480469 54.230469 C 210.382812 54.230469 212.714844 56.582031 212.714844 59.464844 C 212.714844 62.351562 210.382812 64.722656 207.480469 64.722656 C 204.59375 64.722656 202.242188 62.351562 202.242188 59.464844 C 202.242188 56.582031 204.59375 54.230469 207.480469 54.230469 " fill-opacity="1" fill-rule="nonzero"/><path fill="#f8bfa7" d="M 276.390625 102.671875 L 276.390625 23.097656 C 276.390625 17.457031 271.816406 12.882812 266.175781 12.882812 C 260.535156 12.882812 255.960938 17.457031 255.960938 23.097656 L 255.960938 102.671875 L 276.390625 102.671875 " fill-opacity="1" fill-rule="nonzero"/><path fill="#f8bfa7" d="M 296.816406 102.671875 L 296.816406 10.300781 C 296.816406 4.65625 292.242188 0.0859375 286.601562 0.0859375 C 280.960938 0.0859375 276.390625 4.65625 276.390625 10.300781 L 276.390625 102.671875 L 296.816406 102.671875 " fill-opacity="1" fill-rule="nonzero"/><path fill="#f8bfa7" d="M 317.242188 102.671875 L 317.242188 28.910156 C 317.242188 23.269531 312.671875 18.695312 307.03125 18.695312 C 301.390625 18.695312 296.816406 23.269531 296.816406 28.910156 L 296.816406 102.671875 L 317.242188 102.671875 " fill-opacity="1" fill-rule="nonzero"/><path fill="#f8bfa7" d="M 337.671875 102.671875 L 337.671875 66.152344 C 337.671875 60.511719 333.097656 55.941406 327.457031 55.941406 C 321.816406 55.941406 317.242188 60.511719 317.242188 66.152344 L 317.242188 102.671875 L 337.671875 102.671875 " fill-opacity="1" fill-rule="nonzero"/><path fill="#f8bfa7" d="M 256.601562 102.671875 L 256.601562 81.28125 C 256.601562 75.640625 251.816406 71.046875 245.917969 71.046875 L 239.101562 71.046875 C 239.101562 71.046875 235.214844 71.238281 235.214844 74.550781 L 235.214844 140.085938 C 235.214844 140.085938 236.644531 152.117188 252.074219 160.257812 L 262.777344 167.628906 L 262.777344 187.800781 L 325.214844 187.800781 L 325.214844 165.683594 L 333.609375 156.390625 C 333.609375 156.390625 336.859375 153.675781 337.671875 147.863281 L 337.671875 102.671875 " fill-opacity="1" fill-rule="nonzero"/><path stroke-linecap="round" transform="matrix(0.213675, 0, 0, -0.213675, -266.666668, 641.880318)" fill="none" stroke-linejoin="round" d="M 2445.897357 2639.892406 L 2445.897357 2448.195205 " stroke="#f0ac92" stroke-width="20" stroke-opacity="1" stroke-miterlimit="10"/><path stroke-linecap="round" transform="matrix(0.213675, 0, 0, -0.213675, -266.666668, 641.880318)" fill="none" stroke-linejoin="round" d="M 2541.508301 2903.10586 L 2541.508301 2604.298809 " stroke="#f0ac92" stroke-width="20" stroke-opacity="1" stroke-miterlimit="10"/><path stroke-linecap="round" transform="matrix(0.213675, 0, 0, -0.213675, -266.666668, 641.880318)" fill="none" stroke-linejoin="round" d="M 2637.100963 2882.996484 L 2637.100963 2577.608183 " stroke="#f0ac92" stroke-width="20" stroke-opacity="1" stroke-miterlimit="10"/><path stroke-linecap="round" transform="matrix(0.213675, 0, 0, -0.213675, -266.666668, 641.880318)" fill="none" stroke-linejoin="round" d="M 2732.693626 2703.602566 L 2732.693626 2540.808024 " stroke="#f0ac92" stroke-width="20" stroke-opacity="1" stroke-miterlimit="10"/><path fill="#3abdc4" d="M 333.527344 375.128906 L 255.960938 375.128906 L 255.960938 187.800781 L 333.527344 187.800781 L 333.527344 375.128906 " fill-opacity="1" fill-rule="nonzero"/><path fill="#ffffff" d="M 323.269531 207.480469 C 323.269531 210.382812 320.917969 212.714844 318.035156 212.714844 C 315.128906 212.714844 312.800781 210.382812 312.800781 207.480469 C 312.800781 204.59375 315.128906 202.242188 318.035156 202.242188 C 320.917969 202.242188 323.269531 204.59375 323.269531 207.480469 " fill-opacity="1" fill-rule="nonzero"/><path fill="#f8bfa7" d="M 272.542969 286.988281 L 352.117188 286.988281 C 357.757812 286.988281 362.328125 282.394531 362.328125 276.753906 C 362.328125 271.109375 357.757812 266.558594 352.117188 266.558594 L 272.542969 266.558594 L 272.542969 286.988281 " fill-opacity="1" fill-rule="nonzero"/><path fill="#f8bfa7" d="M 272.542969 307.394531 L 364.914062 307.394531 C 370.554688 307.394531 375.128906 302.820312 375.128906 297.179688 C 375.128906 291.539062 370.554688 286.988281 364.914062 286.988281 L 272.542969 286.988281 L 272.542969 307.394531 " fill-opacity="1" fill-rule="nonzero"/><path fill="#f8bfa7" d="M 272.542969 327.820312 L 346.304688 327.820312 C 351.945312 327.820312 356.515625 323.246094 356.515625 317.605469 C 356.515625 311.964844 351.945312 307.394531 346.304688 307.394531 L 272.542969 307.394531 L 272.542969 327.820312 " fill-opacity="1" fill-rule="nonzero"/><path fill="#f8bfa7" d="M 272.542969 348.246094 L 309.082031 348.246094 C 314.722656 348.246094 319.273438 343.675781 319.273438 338.035156 C 319.273438 332.394531 314.722656 327.820312 309.082031 327.820312 L 272.542969 327.820312 L 272.542969 348.246094 " fill-opacity="1" fill-rule="nonzero"/><path fill="#f8bfa7" d="M 272.542969 267.199219 L 293.929688 267.199219 C 299.574219 267.199219 304.144531 262.414062 304.144531 256.496094 L 304.144531 249.679688 C 304.144531 249.679688 303.953125 245.789062 300.664062 245.789062 L 235.128906 245.789062 C 235.128906 245.789062 223.097656 247.222656 214.9375 262.671875 L 207.585938 273.355469 L 187.414062 273.355469 L 187.414062 335.789062 L 209.53125 335.789062 L 218.824219 344.1875 C 218.824219 344.1875 221.539062 347.4375 227.351562 348.246094 L 272.542969 348.246094 " fill-opacity="1" fill-rule="nonzero"/><path stroke-linecap="round" transform="matrix(0.213675, 0, 0, -0.213675, -266.666668, 641.880318)" fill="none" stroke-linejoin="round" d="M 2639.897995 1756.505785 L 2448.200795 1756.505785 " stroke="#f0ac92" stroke-width="20" stroke-opacity="1" stroke-miterlimit="10"/><path stroke-linecap="round" transform="matrix(0.213675, 0, 0, -0.213675, -266.666668, 641.880318)" fill="none" stroke-linejoin="round" d="M 2903.093168 1660.894841 L 2604.304399 1660.894841 " stroke="#f0ac92" stroke-width="20" stroke-opacity="1" stroke-miterlimit="10"/><path stroke-linecap="round" transform="matrix(0.213675, 0, 0, -0.213675, -266.666668, 641.880318)" fill="none" stroke-linejoin="round" d="M 2883.002073 1565.393585 L 2577.595491 1565.393585 " stroke="#f0ac92" stroke-width="20" stroke-opacity="1" stroke-miterlimit="10"/><path stroke-linecap="round" transform="matrix(0.213675, 0, 0, -0.213675, -266.666668, 641.880318)" fill="none" stroke-linejoin="round" d="M 2703.699562 1469.800922 L 2540.703926 1469.800922 " stroke="#f0ac92" stroke-width="20" stroke-opacity="1" stroke-miterlimit="10"/><path fill="#51558f" d="M 0.0859375 344.125 L 0.0859375 266.558594 L 187.414062 266.558594 L 187.414062 344.125 L 0.0859375 344.125 " fill-opacity="1" fill-rule="nonzero"/><path fill="#ffffff" d="M 167.734375 333.847656 C 164.851562 333.847656 162.5 331.496094 162.5 328.609375 C 162.5 325.703125 164.851562 323.375 167.734375 323.375 C 170.621094 323.375 172.96875 325.703125 172.96875 328.609375 C 172.96875 331.496094 170.621094 333.847656 167.734375 333.847656 " fill-opacity="1" fill-rule="nonzero"/><path fill="#f8bfa7" d="M 87.84375 272.542969 L 87.84375 352.117188 C 87.84375 357.757812 92.414062 362.328125 98.078125 362.328125 C 103.71875 362.328125 108.289062 357.757812 108.289062 352.117188 L 108.289062 272.542969 L 87.84375 272.542969 " fill-opacity="1" fill-rule="nonzero"/><path fill="#f8bfa7" d="M 67.4375 272.542969 L 67.4375 364.914062 C 67.4375 370.554688 72.007812 375.128906 77.648438 375.128906 C 83.269531 375.128906 87.84375 370.554688 87.84375 364.914062 L 87.84375 272.542969 L 67.4375 272.542969 " fill-opacity="1" fill-rule="nonzero"/><path fill="#f8bfa7" d="M 47.007812 272.542969 L 47.007812 346.304688 C 47.007812 351.945312 51.582031 356.515625 57.199219 356.515625 C 62.863281 356.515625 67.4375 351.945312 67.4375 346.304688 L 67.4375 272.542969 L 47.007812 272.542969 " fill-opacity="1" fill-rule="nonzero"/><path fill="#f8bfa7" d="M 26.582031 272.542969 L 26.582031 309.082031 C 26.582031 314.722656 31.152344 319.273438 36.792969 319.273438 C 42.4375 319.273438 47.007812 314.722656 47.007812 309.082031 L 47.007812 272.542969 L 26.582031 272.542969 " fill-opacity="1" fill-rule="nonzero"/><path fill="#f8bfa7" d="M 107.628906 272.542969 L 107.628906 293.929688 C 107.628906 299.574219 112.414062 304.144531 118.332031 304.144531 L 125.148438 304.144531 C 125.148438 304.144531 129.039062 303.953125 129.039062 300.664062 L 129.039062 235.128906 C 129.039062 235.128906 127.605469 223.097656 112.15625 214.9375 L 101.472656 207.585938 L 101.472656 187.414062 L 39.039062 187.414062 L 39.039062 209.53125 L 30.640625 218.824219 C 30.640625 218.824219 27.394531 221.539062 26.582031 227.351562 L 26.582031 272.542969 " fill-opacity="1" fill-rule="nonzero"/><path stroke-linecap="round" transform="matrix(0.213675, 0, 0, -0.213675, -266.666668, 641.880318)" fill="none" stroke-linejoin="round" d="M 1754.792936 1612.102181 L 1754.792936 1803.799382 " stroke="#f0ac92" stroke-width="20" stroke-opacity="1" stroke-miterlimit="10"/><path stroke-linecap="round" transform="matrix(0.213675, 0, 0, -0.213675, -266.666668, 641.880318)" fill="none" stroke-linejoin="round" d="M 1659.108868 1348.907008 L 1659.108868 1647.695778 " stroke="#f0ac92" stroke-width="20" stroke-opacity="1" stroke-miterlimit="10"/><path stroke-linecap="round" transform="matrix(0.213675, 0, 0, -0.213675, -266.666668, 641.880318)" fill="none" stroke-linejoin="round" d="M 1563.607611 1368.998103 L 1563.607611 1674.404686 " stroke="#f0ac92" stroke-width="20" stroke-opacity="1" stroke-miterlimit="10"/><path stroke-linecap="round" transform="matrix(0.213675, 0, 0, -0.213675, -266.666668, 641.880318)" fill="none" stroke-linejoin="round" d="M 1467.996667 1548.300615 L 1467.996667 1711.296251 " stroke="#f0ac92" stroke-width="20" stroke-opacity="1" stroke-miterlimit="10"/><path fill="#f9a90c" d="M 174.410156 168.558594 C 174.398438 168.503906 174.386719 168.445312 174.371094 168.390625 C 173.046875 162.515625 168.417969 160.664062 162.636719 160.4375 C 158.457031 160.273438 153.433594 159.378906 149.527344 161.265625 C 147.707031 162.144531 146.234375 163.613281 145.015625 165.222656 C 139.914062 171.980469 139.078125 180.996094 139.417969 189.441406 C 139.757812 197.886719 141.074219 206.417969 139.539062 214.734375 C 151.613281 214.675781 163.683594 214.453125 175.753906 214.066406 C 175.753906 205.078125 175.753906 196.085938 175.753906 187.089844 C 175.753906 180.90625 175.757812 174.628906 174.410156 168.558594 " fill-opacity="1" fill-rule="nonzero"/><g clip-path="url(#92b8fb18bb)"><path fill="#96ddf8" d="M 180.035156 207.621094 L 164.375 198.523438 L 152.007812 198.523438 L 136.539062 207.609375 C 131.777344 210.410156 128.949219 214.953125 128.953125 219.796875 L 128.964844 230.460938 L 187.699219 230.460938 L 187.699219 219.835938 C 187.699219 214.972656 184.839844 210.410156 180.035156 207.621094 " fill-opacity="1" fill-rule="nonzero"/></g><path fill="#eba691" d="M 163.179688 189.398438 L 153.132812 189.398438 L 153.132812 198.589844 L 163.179688 198.589844 L 163.179688 189.398438 " fill-opacity="1" fill-rule="nonzero"/><path fill="#ecb695" d="M 162.085938 192.097656 L 154.246094 192.097656 C 149.066406 192.097656 144.832031 187.882812 144.832031 182.730469 L 144.832031 172.582031 C 144.832031 167.429688 149.066406 163.21875 154.246094 163.21875 L 162.085938 163.21875 C 167.265625 163.21875 171.5 167.429688 171.5 172.582031 L 171.5 182.730469 C 171.5 187.882812 167.265625 192.097656 162.085938 192.097656 " fill-opacity="1" fill-rule="nonzero"/><path fill="#f9a90c" d="M 161.925781 162.648438 C 163.4375 166.023438 162.28125 170.097656 160.039062 173.046875 C 157.792969 175.992188 154.617188 178.0625 151.566406 180.171875 C 148.515625 182.277344 145.445312 184.570312 143.578125 187.769531 C 141.804688 181.390625 142.441406 174.378906 145.332031 168.417969 C 146.183594 166.660156 147.269531 164.945312 148.882812 163.828125 C 150.742188 162.539062 153.089844 162.195312 155.347656 161.945312 C 157.324219 161.722656 159.300781 161.542969 161.285156 161.410156 C 163.160156 161.28125 165.117188 161.207031 166.828125 161.964844 C 169.78125 163.265625 171.175781 166.59375 172.125 169.664062 C 173.710938 174.8125 174.816406 180.226562 174.121094 185.566406 C 171.707031 182.644531 169.296875 179.71875 166.886719 176.796875 C 164.480469 173.882812 161.957031 170.65625 161.875 166.886719 " fill-opacity="1" fill-rule="nonzero"/><g clip-path="url(#3a9e2226e9)"><path fill="#96ddf8" d="M 238.804688 208.042969 L 223.148438 198.945312 L 210.777344 198.945312 L 195.3125 208.03125 C 190.546875 210.828125 187.722656 215.375 187.726562 220.21875 L 187.738281 230.882812 L 246.472656 230.882812 L 246.472656 220.257812 C 246.472656 215.394531 243.609375 210.832031 238.804688 208.042969 " fill-opacity="1" fill-rule="nonzero"/></g><path fill="#eba691" d="M 221.953125 189.820312 L 211.902344 189.820312 L 211.902344 199.011719 L 221.953125 199.011719 L 221.953125 189.820312 " fill-opacity="1" fill-rule="nonzero"/><path fill="#ecb695" d="M 220.859375 192.519531 L 213.015625 192.519531 C 207.839844 192.519531 203.605469 188.304688 203.605469 183.152344 L 203.605469 173.003906 C 203.605469 167.851562 207.839844 163.640625 213.015625 163.640625 L 220.859375 163.640625 C 226.035156 163.640625 230.269531 167.851562 230.269531 173.003906 L 230.269531 183.152344 C 230.269531 188.304688 226.035156 192.519531 220.859375 192.519531 " fill-opacity="1" fill-rule="nonzero"/><path fill="#a04c37" d="M 206.171875 176.4375 C 207 175.355469 208.109375 174.265625 209.484375 173.839844 C 211.308594 173.273438 212.742188 174.175781 214.4375 174.714844 C 216.261719 175.296875 218.230469 175.230469 220.109375 175.015625 C 221.445312 174.863281 222.542969 173.953125 223.855469 173.753906 C 226.054688 173.417969 228.136719 174.921875 229.0625 176.828125 C 229.394531 177.511719 229.445312 178.222656 229.675781 178.925781 C 229.808594 179.347656 230.269531 179.886719 230.269531 180.335938 C 230.269531 180.230469 230.269531 173.003906 230.269531 173.003906 C 230.269531 167.851562 226.035156 163.636719 220.859375 163.636719 L 213.015625 163.636719 C 207.839844 163.636719 203.605469 167.851562 203.605469 173.003906 L 203.605469 179.828125 C 204.664062 178.738281 205.726562 177.023438 206.171875 176.4375 " fill-opacity="1" fill-rule="nonzero"/><g clip-path="url(#f1b1f80b66)"><path fill="#96ddf8" d="M 209.359375 208.042969 L 193.699219 198.945312 L 181.332031 198.945312 L 165.863281 208.03125 C 161.101562 210.828125 158.273438 215.375 158.277344 220.21875 L 158.289062 230.882812 L 217.023438 230.882812 L 217.023438 220.257812 C 217.023438 215.394531 214.164062 210.832031 209.359375 208.042969 " fill-opacity="1" fill-rule="nonzero"/></g><g clip-path="url(#e266a5a2cc)"><path fill="#21335f" d="M 181.378906 198.945312 L 181.332031 198.945312 L 165.863281 208.03125 C 161.101562 210.828125 158.273438 215.375 158.277344 220.21875 L 158.289062 230.882812 L 182.824219 230.882812 C 183.054688 220.207031 182.765625 209.53125 181.378906 198.945312 " fill-opacity="1" fill-rule="nonzero"/></g><g clip-path="url(#2b0bc1065f)"><path fill="#21335f" d="M 209.359375 208.042969 L 194.324219 199.308594 C 192.359375 209.699219 192.371094 220.292969 193.132812 230.882812 L 217.023438 230.882812 L 217.023438 220.257812 C 217.023438 215.394531 214.164062 210.832031 209.359375 208.042969 " fill-opacity="1" fill-rule="nonzero"/></g><path fill="#eba691" d="M 192.503906 189.820312 L 182.457031 189.820312 L 182.457031 199.011719 L 192.503906 199.011719 L 192.503906 189.820312 " fill-opacity="1" fill-rule="nonzero"/><path fill="#ecb695" d="M 191.410156 192.519531 L 183.566406 192.519531 C 178.390625 192.519531 174.15625 188.304688 174.15625 183.152344 L 174.15625 173.003906 C 174.15625 167.851562 178.390625 163.640625 183.566406 163.640625 L 191.410156 163.640625 C 196.585938 163.640625 200.824219 167.851562 200.824219 173.003906 L 200.824219 183.152344 C 200.824219 188.304688 196.585938 192.519531 191.410156 192.519531 " fill-opacity="1" fill-rule="nonzero"/><path fill="#21335f" d="M 194.003906 171.089844 C 194.035156 171.097656 194.066406 171.101562 194.097656 171.109375 C 197.066406 171.839844 198.394531 175.460938 201.171875 176.738281 C 201.5 176.890625 201.855469 177.007812 202.21875 176.992188 C 205.78125 176.851562 203.855469 167.761719 202.921875 166.113281 C 201.625 163.820312 199.421875 161.988281 196.808594 161.421875 C 195.902344 161.222656 194.957031 161.160156 194.097656 160.8125 C 192.386719 160.121094 191.289062 158.449219 189.710938 157.496094 C 187.046875 155.890625 183.523438 156.664062 180.875 158.296875 C 178.230469 159.929688 176.132812 162.308594 173.65625 164.183594 C 171.175781 166.0625 168.003906 167.464844 164.992188 166.675781 C 165.910156 171.199219 170.394531 174.378906 174.988281 175.019531 C 179.578125 175.660156 184.214844 174.230469 188.449219 172.34375 C 190.214844 171.558594 192.125 170.667969 194.003906 171.089844 " fill-opacity="1" fill-rule="nonzero"/></svg>